<?xml version="1.0" encoding="UTF-8" standalone="no"?> <svg width="64" height="64" viewBox="0 0 64 64" fill="none" xmlns="http://www.w3.org/2000/svg">
<path d="M47 50.16C46.9275 50.946 46.5604 51.6755 45.9725 52.2023C45.3846 52.729 44.6193 53.0139 43.83 53H6.17001C5.38078 53.0139 4.61546 52.729 4.02753 52.2023C3.43961 51.6755 3.07257 50.946 3.00001 50.16C2.97368 49.658 3.07442 49.1575 3.29292 48.7047C3.51142 48.252 3.84061 47.8617 4.25001 47.57C4.77314 47.2145 5.20451 46.74 5.50872 46.1855C5.81292 45.631 5.9813 45.0122 6.00001 44.38V33C6.00001 29.287 7.47501 25.726 10.1005 23.1005C12.726 20.475 16.287 19 20 19H30C33.713 19 37.274 20.475 39.8995 23.1005C42.525 25.726 44 29.287 44 33V44.38C44.0187 45.0122 44.1871 45.631 44.4913 46.1855C44.7955 46.74 45.2269 47.2145 45.75 47.57C46.1594 47.8617 46.4886 48.252 46.7071 48.7047C46.9256 49.1575 47.0264 49.658 47 50.16Z" fill="#3D9AE2"/>
<path d="M20 45C24.4183 45 28 41.4183 28 37C28 32.5817 24.4183 29 20 29C15.5817 29 12 32.5817 12 37C12 41.4183 15.5817 45 20 45Z" fill="#1E81CE"/>
<path d="M26 51C26.5299 51.0016 27.0377 51.2128 27.4125 51.5875C27.7872 51.9623 27.9984 52.4701 28 53H12C12.0016 52.4701 12.2128 51.9623 12.5875 51.5875C12.9623 51.2128 13.4701 51.0016 14 51C13.4701 50.9984 12.9623 50.7872 12.5875 50.4125C12.2128 50.0377 12.0016 49.5299 12 49V47C12.0016 46.4701 12.2128 45.9623 12.5875 45.5875C12.9623 45.2128 13.4701 45.0016 14 45H26C26.5299 45.0016 27.0377 45.2128 27.4125 45.5875C27.7872 45.9623 27.9984 46.4701 28 47V49C27.9984 49.5299 27.7872 50.0377 27.4125 50.4125C27.0377 50.7872 26.5299 50.9984 26 51Z" fill="#1E81CE"/>
<path d="M18 43C22.4183 43 26 39.4183 26 35C26 30.5817 22.4183 27 18 27C13.5817 27 10 30.5817 10 35C10 39.4183 13.5817 43 18 43Z" fill="#FFD422"/>
<path d="M24 49C24.5299 49.0016 25.0377 49.2128 25.4125 49.5875C25.7872 49.9623 25.9984 50.4701 26 51V53C25.9984 53.5299 25.7872 54.0377 25.4125 54.4125C25.0377 54.7872 24.5299 54.9984 24 55H12C11.4701 54.9984 10.9623 54.7872 10.5875 54.4125C10.2128 54.0377 10.0016 53.5299 10 53V51C10.0016 50.4701 10.2128 49.9623 10.5875 49.5875C10.9623 49.2128 11.4701 49.0016 12 49H24Z" fill="#FFA733"/>
<path d="M24 43C24.5299 43.0016 25.0377 43.2128 25.4125 43.5875C25.7872 43.9623 25.9984 44.4701 26 45V47C25.9984 47.5299 25.7872 48.0377 25.4125 48.4125C25.0377 48.7872 24.5299 48.9984 24 49H12C11.4701 48.9984 10.9623 48.7872 10.5875 48.4125C10.2128 48.0377 10.0016 47.5299 10 47V45C10.0016 44.4701 10.2128 43.9623 10.5875 43.5875C10.9623 43.2128 11.4701 43.0016 12 43H24Z" fill="#EE8700"/>
<path d="M24 55C24.5299 55.0016 25.0377 55.2128 25.4125 55.5875C25.7872 55.9623 25.9984 56.4701 26 57V59C25.9984 59.5299 25.7872 60.0377 25.4125 60.4125C25.0377 60.7872 24.5299 60.9984 24 61H12C11.4701 60.9984 10.9623 60.7872 10.5875 60.4125C10.2128 60.0377 10.0016 59.5299 10 59V57C10.0016 56.4701 10.2128 55.9623 10.5875 55.5875C10.9623 55.2128 11.4701 55.0016 12 55H24Z" fill="#EE8700"/>
<path d="M31 17C30.9961 17.5292 30.7841 18.0357 30.4099 18.4099C30.0357 18.7841 29.5292 18.9961 29 19H21C20.4701 18.9984 19.9623 18.7872 19.5875 18.4125C19.2128 18.0377 19.0016 17.5299 19 17C19.0039 16.4708 19.2159 15.9643 19.5901 15.5901C19.9643 15.2159 20.4708 15.0039 21 15H29C29.5299 15.0016 30.0377 15.2128 30.4125 15.5875C30.7872 15.9623 30.9984 16.4701 31 17V17Z" fill="#1E81CE"/>
<path d="M35 5L29 15H21L15 5C17.5 5 17.5 3 20 3C22.5 3 22.5 5 25.01 5C27.52 5 27.51 3 30 3C32.49 3 32.5 5 35 5Z" fill="#3D9AE2"/>
<path d="M42 35C41.4701 34.9984 40.9623 34.7872 40.5875 34.4125C40.2128 34.0377 40.0016 33.5299 40 33C40.0039 32.4708 40.2159 31.9643 40.5901 31.5901C40.9644 31.2159 41.4708 31.0039 42 31H48C48.5299 31.0016 49.0377 31.2128 49.4125 31.5875C49.7872 31.9623 49.9984 32.4701 50 33C49.9961 33.5292 49.7841 34.0356 49.4099 34.4099C49.0356 34.7841 48.5292 34.9961 48 35H42Z" fill="#1E81CE"/>
<path d="M54 23L48 31H42L36 23C38.5 23 37.5 22 40 22C42.5 22 42.5 24 45.01 24C47.52 24 47.51 22 50 22C52.49 22 51.5 23 54 23Z" fill="#5AAAE7"/>
<path d="M32 45C32 42.3478 33.0536 39.8043 34.9289 37.9289C36.8043 36.0536 39.3478 35 42 35H48C50.6522 35 53.1957 36.0536 55.0711 37.9289C56.9464 39.8043 58 42.3478 58 45V52.38C58.0187 53.0122 58.1871 53.631 58.4913 54.1855C58.7955 54.74 59.2269 55.2145 59.75 55.57C60.1594 55.8617 60.4886 56.252 60.7071 56.7047C60.9256 57.1575 61.0264 57.658 61 58.16C60.9291 58.9466 60.5625 59.6771 59.9742 60.2042C59.3859 60.7312 58.6197 61.0156 57.83 61H32.17C31.3803 61.0156 30.6141 60.7312 30.0258 60.2042C29.4375 59.6771 29.071 58.9466 29 58.16C28.9737 57.658 29.0744 57.1575 29.2929 56.7047C29.5114 56.252 29.8406 55.8617 30.25 55.57C30.7731 55.2145 31.2045 54.74 31.5087 54.1855C31.8129 53.631 31.9813 53.0122 32 52.38V45Z" fill="#5AAAE7"/>
<path d="M60.34 54.7501C59.9433 54.4911 59.6145 54.1407 59.3813 53.7283C59.1482 53.3159 59.0174 52.8536 59 52.3801V45.0001C58.9953 42.5498 58.1735 40.171 56.6648 38.2403C55.1561 36.3095 53.0465 34.9371 50.67 34.3401C51.009 33.6845 51.0902 32.9257 50.8977 32.2131C50.7052 31.5006 50.253 30.8859 49.63 30.4901L54.8 23.6001C54.9113 23.4508 54.9786 23.2734 54.9945 23.0879C55.0104 22.9024 54.9742 22.7162 54.89 22.5501C54.8091 22.3835 54.6824 22.2433 54.5248 22.1459C54.3672 22.0486 54.1852 21.998 54 22.0001C53.4957 22.0721 52.9826 21.9545 52.56 21.6701C51.8097 21.1577 50.9051 20.921 50 21.0001C48.8423 20.9933 47.726 21.4298 46.88 22.2201C46.6343 22.4673 46.3421 22.6634 46.0204 22.7972C45.6986 22.931 45.3535 22.9999 45.005 22.9999C44.6565 22.9999 44.3114 22.931 43.9896 22.7972C43.6679 22.6634 43.3757 22.4673 43.13 22.2201C42.28 21.4299 41.1606 20.9935 40 21.0001C39.679 20.9969 39.3581 21.017 39.04 21.0601C36.9231 19.4544 34.4177 18.4398 31.78 18.1201C32.0515 17.4541 32.0725 16.7122 31.839 16.0319C31.6055 15.3516 31.1333 14.779 30.51 14.4201L35.86 5.51011C35.95 5.35829 35.9982 5.18534 35.9998 5.00884C36.0013 4.83234 35.9561 4.65858 35.8688 4.50521C35.7814 4.35184 35.655 4.22432 35.5024 4.1356C35.3499 4.04689 35.1765 4.00014 35 4.00011C34.6516 4.00436 34.306 3.93736 33.9844 3.80323C33.6629 3.6691 33.3721 3.47067 33.13 3.22011C32.2784 2.43554 31.1629 2 30.005 2C28.8471 2 27.7316 2.43554 26.88 3.22011C26.6343 3.46725 26.3421 3.66338 26.0204 3.79721C25.6986 3.93105 25.3535 3.99994 25.005 3.99994C24.6565 3.99994 24.3114 3.93105 23.9896 3.79721C23.6679 3.66338 23.3757 3.46725 23.13 3.22011C22.2784 2.43554 21.1629 2 20.005 2C18.8471 2 17.7316 2.43554 16.88 3.22011C16.6352 3.46988 16.3425 3.6677 16.0195 3.80172C15.6965 3.93575 15.3497 4.00322 15 4.00011C14.8235 4.00014 14.6501 4.04689 14.4976 4.1356C14.345 4.22432 14.2186 4.35184 14.1312 4.50521C14.0439 4.65858 13.9987 4.83234 14.0002 5.00884C14.0018 5.18534 14.05 5.35829 14.14 5.51011L19.49 14.4201C18.8667 14.779 18.3945 15.3516 18.161 16.0319C17.9275 16.7122 17.9485 17.4541 18.22 18.1201C14.5791 18.5572 11.2242 20.3121 8.78862 23.0535C6.35306 25.7949 5.00538 29.3331 5 33.0001V44.3801C4.98038 44.8533 4.84979 45.3153 4.61876 45.7287C4.38772 46.1421 4.06273 46.4954 3.67 46.7601C3.12212 47.1489 2.68163 47.6701 2.38961 48.2751C2.09759 48.8802 1.96355 49.5493 2 50.2201C2.08146 51.2633 2.55869 52.2359 3.33395 52.9386C4.10922 53.6414 5.12384 54.0212 6.17 54.0001H9.18C9.31652 54.3676 9.51996 54.7067 9.78 55.0001C9.28007 55.5464 9.00193 56.2596 9 57.0001V59.0001C9.00238 59.795 9.31921 60.5567 9.8813 61.1188C10.4434 61.6809 11.2051 61.9977 12 62.0001H24C24.7949 61.9977 25.5566 61.6809 26.1187 61.1188C26.6808 60.5567 26.9976 59.795 27 59.0001V57.0001C26.9981 56.2596 26.7199 55.5464 26.22 55.0001C26.48 54.7067 26.6835 54.3676 26.82 54.0001H30.41C30.2016 54.2885 29.9484 54.5417 29.66 54.7501C29.1153 55.1407 28.6784 55.6628 28.3899 56.2678C28.1013 56.8728 27.9707 57.541 28.01 58.2101C28.0837 59.2553 28.5569 60.232 29.3315 60.9377C30.106 61.6433 31.1225 62.0238 32.17 62.0001H57.83C58.8775 62.0238 59.894 61.6433 60.6685 60.9377C61.4431 60.232 61.9163 59.2553 61.99 58.2101C62.0293 57.541 61.8986 56.8728 61.6101 56.2678C61.3216 55.6628 60.8847 55.1407 60.34 54.7501V54.7501ZM38.56 23.3301C38.9826 23.0457 39.4957 22.9281 40 23.0001C40.3497 22.997 40.6965 23.0645 41.0195 23.1985C41.3425 23.3325 41.6352 23.5303 41.88 23.7801C42.7316 24.5647 43.8471 25.0002 45.005 25.0002C46.1629 25.0002 47.2784 24.5647 48.13 23.7801C48.3733 23.5311 48.6643 23.3338 48.9856 23.1997C49.3069 23.0657 49.6519 22.9978 50 23.0001C50.5074 22.9288 51.0234 23.0462 51.45 23.3301C51.6836 23.4948 51.9353 23.6323 52.2 23.7401L47.5 30.0001H42.5L37.8 23.7401C38.0668 23.6301 38.3215 23.4927 38.56 23.3301V23.3301ZM49 33.0001C49 33.2653 48.8946 33.5197 48.7071 33.7072C48.5196 33.8948 48.2652 34.0001 48 34.0001H42C41.7348 34.0001 41.4804 33.8948 41.2929 33.7072C41.1054 33.5197 41 33.2653 41 33.0001C41 32.7349 41.1054 32.4805 41.2929 32.293C41.4804 32.1055 41.7348 32.0001 42 32.0001H48C48.2652 32.0001 48.5196 32.1055 48.7071 32.293C48.8946 32.4805 49 32.7349 49 33.0001ZM16.6 5.73011C17.1582 5.49857 17.6749 5.1777 18.13 4.78011C18.3721 4.52955 18.6629 4.33112 18.9844 4.19699C19.306 4.06285 19.6516 3.99586 20 4.00011C20.3497 3.997 20.6965 4.06447 21.0195 4.1985C21.3425 4.33252 21.6352 4.53034 21.88 4.78011C22.7316 5.56468 23.8471 6.00022 25.005 6.00022C26.1629 6.00022 27.2784 5.56468 28.13 4.78011C28.3757 4.53297 28.6679 4.33684 28.9896 4.20301C29.3114 4.06917 29.6565 4.00027 30.005 4.00027C30.3535 4.00027 30.6986 4.06917 31.0204 4.20301C31.3421 4.33684 31.6343 4.53297 31.88 4.78011C32.3278 5.17993 32.8423 5.49809 33.4 5.72011L28.43 14.0001H21.57L16.6 5.73011ZM30 17.0001C30 17.2653 29.8946 17.5197 29.7071 17.7072C29.5196 17.8948 29.2652 18.0001 29 18.0001H21C20.7348 18.0001 20.4804 17.8948 20.2929 17.7072C20.1054 17.5197 20 17.2653 20 17.0001C20 16.7349 20.1054 16.4805 20.2929 16.293C20.4804 16.1055 20.7348 16.0001 21 16.0001H29C29.2652 16.0001 29.5196 16.1055 29.7071 16.293C29.8946 16.4805 30 16.7349 30 17.0001ZM25 59.0001C25 59.2653 24.8946 59.5197 24.7071 59.7072C24.5196 59.8948 24.2652 60.0001 24 60.0001H12C11.7348 60.0001 11.4804 59.8948 11.2929 59.7072C11.1054 59.5197 11 59.2653 11 59.0001V57.0001C11 56.7349 11.1054 56.4805 11.2929 56.293C11.4804 56.1055 11.7348 56.0001 12 56.0001H13V58.0001H15V56.0001H17V58.0001H19V56.0001H21V58.0001H23V56.0001H24C24.2652 56.0001 24.5196 56.1055 24.7071 56.293C24.8946 56.4805 25 56.7349 25 57.0001V59.0001ZM25 53.0001C25 53.2653 24.8946 53.5197 24.7071 53.7072C24.5196 53.8948 24.2652 54.0001 24 54.0001H12C11.7348 54.0001 11.4804 53.8948 11.2929 53.7072C11.1054 53.5197 11 53.2653 11 53.0001V51.0001C11 50.7349 11.1054 50.4805 11.2929 50.293C11.4804 50.1055 11.7348 50.0001 12 50.0001H13V52.0001H15V50.0001H17V52.0001H19V50.0001H21V52.0001H23V50.0001H24C24.2652 50.0001 24.5196 50.1055 24.7071 50.293C24.8946 50.4805 25 50.7349 25 51.0001V53.0001ZM25 47.0001C25 47.2653 24.8946 47.5197 24.7071 47.7072C24.5196 47.8948 24.2652 48.0001 24 48.0001H12C11.7348 48.0001 11.4804 47.8948 11.2929 47.7072C11.1054 47.5197 11 47.2653 11 47.0001V45.0001C11 44.7349 11.1054 44.4805 11.2929 44.293C11.4804 44.1055 11.7348 44.0001 12 44.0001H13V46.0001H15V44.0001H17V46.0001H19V44.0001H21V46.0001H23V44.0001H24C24.2652 44.0001 24.5196 44.1055 24.7071 44.293C24.8946 44.4805 25 44.7349 25 45.0001V47.0001ZM11 35.0001C11 33.6156 11.4105 32.2623 12.1797 31.1111C12.9489 29.96 14.0421 29.0628 15.3212 28.533C16.6003 28.0031 18.0078 27.8645 19.3656 28.1346C20.7235 28.4047 21.9708 29.0714 22.9497 30.0504C23.9287 31.0293 24.5954 32.2766 24.8655 33.6345C25.1356 34.9923 24.997 36.3998 24.4672 37.6789C23.9373 38.958 23.0401 40.0512 21.889 40.8204C20.7378 41.5896 19.3845 42.0001 18 42.0001C16.1441 41.998 14.3649 41.2598 13.0526 39.9475C11.7403 38.6352 11.0021 36.856 11 35.0001V35.0001ZM27 52.0001V51.0001C26.9981 50.2596 26.7199 49.5464 26.22 49.0001C26.7199 48.4538 26.9981 47.7406 27 47.0001V45.0001C26.9976 44.2052 26.6808 43.4435 26.1187 42.8814C25.5566 42.3193 24.7949 42.0025 24 42.0001H23.64C25.0918 40.8326 26.1455 39.2434 26.6558 37.4516C27.1661 35.6599 27.1078 33.7539 26.4889 31.9967C25.87 30.2395 24.7211 28.7177 23.2006 27.6412C21.6801 26.5647 19.863 25.9865 18 25.9865C16.137 25.9865 14.3199 26.5647 12.7994 27.6412C11.2789 28.7177 10.13 30.2395 9.51112 31.9967C8.89223 33.7539 8.8339 35.6599 9.34418 37.4516C9.85446 39.2434 10.9082 40.8326 12.36 42.0001H12C11.2051 42.0025 10.4434 42.3193 9.8813 42.8814C9.31921 43.4435 9.00238 44.2052 9 45.0001V47.0001C9.00193 47.7406 9.28007 48.4538 9.78 49.0001C9.28007 49.5464 9.00193 50.2596 9 51.0001V52.0001H6.17C5.63729 52.0142 5.11871 51.8278 4.71687 51.4778C4.31502 51.1278 4.05919 50.6397 4 50.1101C3.98336 49.7744 4.0516 49.4399 4.19841 49.1375C4.34523 48.8351 4.56589 48.5747 4.84 48.3801C5.4905 47.9315 6.02541 47.3351 6.40088 46.6398C6.77634 45.9445 6.98166 45.1701 7 44.3801V33.0001C7.00318 29.5533 8.37384 26.2485 10.8111 23.8112C13.2484 21.3739 16.5532 20.0033 20 20.0001H20.54C19.55 21.0973 19.0014 22.5223 19 24.0001V25.0001H21V24.0001C21 22.9392 21.4214 21.9218 22.1716 21.1717C22.9217 20.4215 23.9391 20.0001 25 20.0001C26.0609 20.0001 27.0783 20.4215 27.8284 21.1717C28.5786 21.9218 29 22.9392 29 24.0001V25.0001H31V24.0001C30.9986 22.5223 30.45 21.0973 29.46 20.0001H30C32.4074 19.9925 34.768 20.665 36.81 21.9401C36.5426 21.9864 36.2713 22.0065 36 22.0001C35.8148 21.998 35.6328 22.0486 35.4752 22.1459C35.3176 22.2433 35.1909 22.3835 35.11 22.5501C35.0258 22.7162 34.9896 22.9024 35.0055 23.0879C35.0214 23.2734 35.0887 23.4508 35.2 23.6001L40.37 30.4901C39.747 30.8859 39.2948 31.5006 39.1023 32.2131C38.9098 32.9257 38.991 33.6845 39.33 34.3401C36.9535 34.9371 34.8439 36.3095 33.3352 38.2403C31.8265 40.171 31.0047 42.5498 31 45.0001V52.0001H27ZM57.83 60.0001H32.17C31.6373 60.0142 31.1187 59.8278 30.7169 59.4778C30.315 59.1278 30.0592 58.6397 30 58.1101C29.9835 57.7755 30.0508 57.442 30.1957 57.1399C30.3407 56.8378 30.5587 56.5767 30.83 56.3801C31.4852 55.9354 32.0241 55.3401 32.4017 54.6441C32.7793 53.9481 32.9844 53.1718 33 52.3801V45.0001C33.0033 42.8923 33.7456 40.8524 35.0977 39.2353C36.4498 37.6183 38.3261 36.5266 40.4 36.1501C39.4961 37.2295 39.0005 38.5923 39 40.0001V41.0001H41V40.0001C41 38.9392 41.4214 37.9218 42.1716 37.1717C42.9217 36.4215 43.9391 36.0001 45 36.0001C46.0609 36.0001 47.0783 36.4215 47.8284 37.1717C48.5786 37.9218 49 38.9392 49 40.0001V41.0001H51V40.0001C50.9995 38.5923 50.5039 37.2295 49.6 36.1501C51.6739 36.5266 53.5502 37.6183 54.9023 39.2353C56.2544 40.8524 56.9967 42.8923 57 45.0001V52.3801C57.0156 53.1718 57.2207 53.9481 57.5983 54.6441C57.9759 55.3401 58.5148 55.9354 59.17 56.3801C59.4413 56.5767 59.6593 56.8378 59.8043 57.1399C59.9492 57.442 60.0165 57.7755 60 58.1101C59.9408 58.6397 59.685 59.1278 59.2831 59.4778C58.8813 59.8278 58.3627 60.0142 57.83 60.0001V60.0001Z" fill="black"/>
<path d="M44 47H46C46.2652 47 46.5196 47.1054 46.7071 47.2929C46.8946 47.4804 47 47.7348 47 48H49C49 47.2044 48.6839 46.4413 48.1213 45.8787C47.5587 45.3161 46.7956 45 46 45V44H44V45C43.2044 45 42.4413 45.3161 41.8787 45.8787C41.3161 46.4413 41 47.2044 41 48C41 48.7956 41.3161 49.5587 41.8787 50.1213C42.4413 50.6839 43.2044 51 44 51H46C46.2652 51 46.5196 51.1054 46.7071 51.2929C46.8946 51.4804 47 51.7348 47 52C47 52.2652 46.8946 52.5196 46.7071 52.7071C46.5196 52.8946 46.2652 53 46 53H44C43.7348 53 43.4804 52.8946 43.2929 52.7071C43.1054 52.5196 43 52.2652 43 52H41C41 52.7956 41.3161 53.5587 41.8787 54.1213C42.4413 54.6839 43.2044 55 44 55V56H46V55C46.7956 55 47.5587 54.6839 48.1213 54.1213C48.6839 53.5587 49 52.7956 49 52C49 51.2044 48.6839 50.4413 48.1213 49.8787C47.5587 49.3161 46.7956 49 46 49H44C43.7348 49 43.4804 48.8946 43.2929 48.7071C43.1054 48.5196 43 48.2652 43 48C43 47.7348 43.1054 47.4804 43.2929 47.2929C43.4804 47.1054 43.7348 47 44 47Z" fill="black"/>
<path d="M53 49H51V51H53V49Z" fill="black"/>
<path d="M39 49H37V51H39V49Z" fill="black"/>
<path d="M18 30V32C18.7956 32 19.5587 32.3161 20.1213 32.8787C20.6839 33.4413 21 34.2044 21 35H23C22.9984 33.6744 22.4711 32.4036 21.5338 31.4662C20.5964 30.5289 19.3256 30.0016 18 30V30Z" fill="black"/>
</svg>
